<?xml version="1.0" encoding="UTF-8"?>
<svg version="1.1" xmlns="http://www.w3.org/2000/svg" width="96" height="96">
<path d="M0 0 C1.8527832 1.90844727 1.8527832 1.90844727 3.55078125 4.56640625 C4.16630859 5.52740234 4.78183594 6.48839844 5.41601562 7.47851562 C6.04185547 8.49623047 6.66769531 9.51394531 7.3125 10.5625 C7.95767578 11.55314453 8.60285156 12.54378906 9.26757812 13.56445312 C14.41028708 21.75469332 14.41028708 21.75469332 14.703125 26 C14 29 14 29 12.05859375 30.99609375 C6.64937957 33.97075848 3.15983139 35.51331928 -3 35 C-5.16678256 36.87300043 -5.16678256 36.87300043 -5.875 39.5625 C-7 42 -7 42 -9.125 42.8125 C-10.053125 42.9053125 -10.053125 42.9053125 -11 43 C-11.33 44.65 -11.66 46.3 -12 48 C-13.65 48.33 -15.3 48.66 -17 49 C-17.0928125 49.928125 -17.0928125 49.928125 -17.1875 50.875 C-18 53 -18 53 -20.375 54.0625 C-21.24125 54.371875 -22.1075 54.68125 -23 55 C-23.495 55.556875 -23.99 56.11375 -24.5 56.6875 C-24.995 57.120625 -25.49 57.55375 -26 58 C-29.59471546 57.71620667 -32.70389298 56.4126173 -36 55 C-36.66 55.66 -37.32 56.32 -38 57 C-40.9375 57.3125 -40.9375 57.3125 -44 57 C-45.5625 55.5625 -45.5625 55.5625 -47 54 C-47.845625 53.855625 -48.69125 53.71125 -49.5625 53.5625 C-50.7690625 53.2840625 -50.7690625 53.2840625 -52 53 C-52.66666667 51.66666667 -53.33333333 50.33333333 -54 49 C-56.55519921 48.18828772 -56.55519921 48.18828772 -59 48 C-59.061875 47.38125 -59.12375 46.7625 -59.1875 46.125 C-59.82224359 43.73182415 -59.82224359 43.73182415 -62.5 42.8125 C-63.325 42.544375 -64.15 42.27625 -65 42 C-66 41 -66 41 -66.0625 38.4375 C-66.041875 37.633125 -66.02125 36.82875 -66 36 C-66.78375 36.12375 -67.5675 36.2475 -68.375 36.375 C-73.58074112 35.83647506 -78.28645163 33.75024351 -82 30 C-83.20544988 24.88516296 -81.67563976 21.99606013 -79.11328125 17.50390625 C-77.86307631 15.51283912 -76.59554268 13.53256654 -75.3125 11.5625 C-74.68666016 10.54478516 -74.06082031 9.52707031 -73.41601562 8.47851562 C-72.80048828 7.51751953 -72.18496094 6.55652344 -71.55078125 5.56640625 C-70.99044189 4.68927979 -70.43010254 3.81215332 -69.8527832 2.90844727 C-68 1 -68 1 -65.45898438 0.62768555 C-62.15236129 1.12834085 -59.99959436 2.4580898 -57.1875 4.25 C-56.21167969 4.85328125 -55.23585938 5.4565625 -54.23046875 6.078125 C-53.49441406 6.71234375 -52.75835937 7.3465625 -52 8 C-52 9.32 -52 10.64 -52 12 C-50.96101563 11.855625 -49.92203125 11.71125 -48.8515625 11.5625 C-28.08571159 8.76081756 -28.08571159 8.76081756 -21 12 C-18.29113059 12.16798262 -18.29113059 12.16798262 -16 12 C-16.16048828 10.88044922 -16.16048828 10.88044922 -16.32421875 9.73828125 C-16 7 -16 7 -13.76953125 4.98046875 C-12.79371094 4.38878906 -11.81789063 3.79710937 -10.8125 3.1875 C-9.84957031 2.58292969 -8.88664062 1.97835938 -7.89453125 1.35546875 C-4.80110361 -0.09314041 -3.35039694 -0.48800939 0 0 Z " fill="#FCCCB2" transform="translate(82,17)"/>
<path d="M0 0 C1.8527832 1.90844727 1.8527832 1.90844727 3.55078125 4.56640625 C4.47407227 6.00790039 4.47407227 6.00790039 5.41601562 7.47851562 C6.04185547 8.49623047 6.66769531 9.51394531 7.3125 10.5625 C7.95767578 11.55314453 8.60285156 12.54378906 9.26757812 13.56445312 C14.41022344 21.75459196 14.41022344 21.75459196 14.7109375 26 C14 29 14 29 11.98828125 30.99609375 C11.10527344 31.47175781 10.22226563 31.94742188 9.3125 32.4375 C8.44238281 32.93121094 7.57226562 33.42492188 6.67578125 33.93359375 C3.88900679 35.04423525 1.96765959 35.21923251 -1 35 C-1.58007812 33.9378125 -2.16015625 32.875625 -2.7578125 31.78125 C-3.54543344 30.35337055 -4.33459626 28.92634091 -5.125 27.5 C-5.53153809 26.76547607 -5.93807617 26.03095215 -6.35693359 25.27416992 C-8.91568786 20.72286026 -11.59036604 16.56782177 -15.1015625 12.67578125 C-16 11 -16 11 -15.9453125 8.5 C-14.70324405 5.21519089 -13.27007812 4.41645005 -10.25 2.6875 C-9.38890625 2.17574219 -8.5278125 1.66398437 -7.640625 1.13671875 C-4.70766214 -0.12584367 -3.15357597 -0.4396277 0 0 Z " fill="#3461A9" transform="translate(82,17)"/>
<path d="M0 0 C3.12632064 0.46975964 5.10316694 1.66845849 7.7578125 3.36743164 C8.64082031 3.92430664 9.52382813 4.48118164 10.43359375 5.05493164 C11.09746094 5.48805664 11.76132812 5.92118164 12.4453125 6.36743164 C12.08673598 12.9180124 9.53309017 17.12143505 6.0078125 22.55493164 C5.00789705 24.13098276 4.00915636 25.70777995 3.01171875 27.28540039 C2.56771729 27.97400146 2.12371582 28.66260254 1.66625977 29.37207031 C0.47148833 31.32465318 -0.56259005 33.30563447 -1.5546875 35.36743164 C-6.80505201 35.03928386 -10.46150684 33.63502631 -15.05078125 31.10961914 C-16.89330896 28.97515846 -17.24604463 27.3472723 -17.09545898 24.54321289 C-15.84185464 19.49936551 -12.67106331 15.23518351 -9.8671875 10.92993164 C-9.24134766 9.9122168 -8.61550781 8.89450195 -7.97070312 7.84594727 C-7.35517578 6.88495117 -6.73964844 5.92395508 -6.10546875 4.93383789 C-5.54512939 4.05671143 -4.98479004 3.17958496 -4.4074707 2.27587891 C-2.5546875 0.36743164 -2.5546875 0.36743164 0 0 Z " fill="#3360A9" transform="translate(16.5546875,17.632568359375)"/>
<path d="M0 0 C0.66 0.66 1.32 1.32 2 2 C3.92780616 1.9469967 3.92780616 1.9469967 6 1.5 C8.125 1.09375 8.125 1.09375 10 1 C12 3 12 3 12 6 C12.94875 5.79375 13.8975 5.5875 14.875 5.375 C16.421875 5.189375 16.421875 5.189375 18 5 C20 7 20 7 20 11 C21.32 11.33 22.64 11.66 24 12 C24.33 13.32 24.66 14.64 25 16 C26.65 16.33 28.3 16.66 30 17 C29.25 24.75 29.25 24.75 27 27 C24.0625 27.3125 24.0625 27.3125 21 27 C19.4375 25.5625 19.4375 25.5625 18 24 C16.7315625 23.7834375 16.7315625 23.7834375 15.4375 23.5625 C14.633125 23.376875 13.82875 23.19125 13 23 C12.33333333 21.66666667 11.66666667 20.33333333 11 19 C8.44480079 18.18828772 8.44480079 18.18828772 6 18 C5.9071875 17.071875 5.9071875 17.071875 5.8125 16.125 C5.17775641 13.73182415 5.17775641 13.73182415 2.5 12.8125 C1.675 12.544375 0.85 12.27625 0 12 C-1 11 -1 11 -1.1328125 9.00390625 C-1.13023438 8.19824219 -1.12765625 7.39257812 -1.125 6.5625 C-1.12757812 5.75941406 -1.13015625 4.95632812 -1.1328125 4.12890625 C-1 2 -1 2 0 0 Z " fill="#F5A886" transform="translate(17,47)"/>
<path d="M0 0 C1.83522582 -0.1443436 3.66887834 -0.31057362 5.5 -0.5 C10.40009756 -0.53978428 10.40009756 -0.53978428 12.83203125 1.6484375 C14.41355192 4.02697782 15.70341864 6.45555277 17 9 C18.14122602 10.77380605 19.28698739 12.54470322 20.4375 14.3125 C23.08421107 18.43181724 23.08421107 18.43181724 22.66015625 21.29296875 C22.33337891 22.13794922 22.33337891 22.13794922 22 23 C17.59003994 24.30607074 17.59003994 24.30607074 14.97949219 22.9519043 C14.34172852 22.41476807 13.70396484 21.87763184 13.046875 21.32421875 C12.345625 20.74349609 11.644375 20.16277344 10.921875 19.56445312 C10.20515625 18.94505859 9.4884375 18.32566406 8.75 17.6875 C8.0178125 17.07970703 7.285625 16.47191406 6.53125 15.84570312 C1.17279779 11.34559557 1.17279779 11.34559557 0 9 C-5.61 9 -11.22 9 -17 9 C-17.33 7.68 -17.66 6.36 -18 5 C-16.13591458 3.95936979 -14.25814929 2.94322085 -12.375 1.9375 C-11.33085938 1.36902344 -10.28671875 0.80054687 -9.2109375 0.21484375 C-5.51096387 -1.18502462 -3.79792471 -0.84118492 0 0 Z " fill="#F3A482" transform="translate(57,29)"/>
<path d="M0 0 C1.32 0.66 2.64 1.32 4 2 C3.25 4.4375 3.25 4.4375 2 7 C-0.125 7.8125 -0.125 7.8125 -2 8 C-2.33 9.65 -2.66 11.3 -3 13 C-4.65 13.33 -6.3 13.66 -8 14 C-8.0928125 14.928125 -8.0928125 14.928125 -8.1875 15.875 C-9 18 -9 18 -11.375 19.0625 C-12.24125 19.371875 -13.1075 19.68125 -14 20 C-14.495 20.556875 -14.99 21.11375 -15.5 21.6875 C-17 23 -17 23 -19.375 22.875 C-22.21803092 21.92732303 -24.50103367 20.64217787 -27 19 C-26.67 17.02 -26.34 15.04 -26 13 C-25.2575 13.845625 -24.515 14.69125 -23.75 15.5625 C-21.33183092 18.24874032 -21.33183092 18.24874032 -18.75 18 C-16.64862526 17.05720054 -16.64862526 17.05720054 -16 14 C-14.35 13.67 -12.7 13.34 -11 13 C-10.67 12.01 -10.34 11.02 -10 10 C-7.9375 9.3125 -7.9375 9.3125 -6 9 C-5.67 7.35 -5.34 5.7 -5 4 C-4.360625 3.896875 -3.72125 3.79375 -3.0625 3.6875 C-2.381875 3.460625 -1.70125 3.23375 -1 3 C-0.67 2.01 -0.34 1.02 0 0 Z " fill="#FCBD9B" transform="translate(73,52)"/>
<path d="M0 0 C0.66 0 1.32 0 2 0 C1.4357967 3.62000758 0.5167791 6.19159597 -1.43359375 9.28515625 C-1.91763672 10.06310547 -2.40167969 10.84105469 -2.90039062 11.64257812 C-3.40763672 12.44115234 -3.91488281 13.23972656 -4.4375 14.0625 C-5.43755671 15.65670051 -6.43630201 17.25172459 -7.43359375 18.84765625 C-7.87759521 19.54898682 -8.32159668 20.25031738 -8.77905273 20.97290039 C-9.96347306 22.93935548 -11.00298974 24.93321136 -12 27 C-17.39331003 26.5685352 -20.85462751 25.55317642 -25 22 C-25.875 19.25 -25.875 19.25 -26 17 C-25.22076172 17.433125 -25.22076172 17.433125 -24.42578125 17.875 C-23.72839844 18.24625 -23.03101563 18.6175 -22.3125 19 C-21.62800781 19.37125 -20.94351562 19.7425 -20.23828125 20.125 C-17.55127095 21.17541938 -15.86666637 21.36604492 -13 21 C-11.22400077 19.17955445 -11.22400077 19.17955445 -9.921875 16.66015625 C-9.40109375 15.76232422 -8.8803125 14.86449219 -8.34375 13.93945312 C-7.8178125 12.99005859 -7.291875 12.04066406 -6.75 11.0625 C-5.6828932 9.19887419 -4.61521555 7.33557508 -3.546875 5.47265625 C-3.08120117 4.64000244 -2.61552734 3.80734863 -2.13574219 2.94946289 C-1 1 -1 1 0 0 Z " fill="#2F5187" transform="translate(27,26)"/>
<path d="M0 0 C0.66 0 1.32 0 2 0 C3.11328125 1.51293945 3.11328125 1.51293945 4.3125 3.61328125 C4.74820313 4.36673828 5.18390625 5.12019531 5.6328125 5.89648438 C6.08398438 6.69376953 6.53515625 7.49105469 7 8.3125 C7.89521328 9.87144998 8.79102384 11.43005715 9.6875 12.98828125 C10.08324219 13.68477783 10.47898437 14.38127441 10.88671875 15.09887695 C11.86474584 16.76902979 12.92640826 18.38961239 14 20 C18.27211686 20.69277571 20.45819651 19.23692852 24 17 C24.99 17 25.98 17 27 17 C26.62609468 19.57334835 26.3032769 20.73073547 24.328125 22.484375 C23.64234375 22.90203125 22.9565625 23.3196875 22.25 23.75 C21.57453125 24.17796875 20.8990625 24.6059375 20.203125 25.046875 C17.6492467 26.15174434 15.75446764 26.1733581 13 26 C12.39671875 24.91460937 11.7934375 23.82921875 11.171875 22.7109375 C10.36471223 21.26555301 9.55741332 19.82024454 8.75 18.375 C8.35425781 17.66214844 7.95851563 16.94929688 7.55078125 16.21484375 C5.71332835 12.93152627 3.86834802 9.81237354 1.703125 6.7265625 C0 4 0 4 0 0 Z " fill="#2E5087" transform="translate(68,26)"/>
<path d="M0 0 C0.66 0 1.32 0 2 0 C1.43200205 3.67644447 0.46584368 6.27870952 -1.50390625 9.42578125 C-1.99697266 10.22177734 -2.49003906 11.01777344 -2.99804688 11.83789062 C-3.77245117 13.06282227 -3.77245117 13.06282227 -4.5625 14.3125 C-5.08263672 15.14845703 -5.60277344 15.98441406 -6.13867188 16.84570312 C-7.41910355 18.90144205 -8.7063358 20.95257223 -10 23 C-11.14746094 21.28417969 -11.14746094 21.28417969 -12 19 C-11.15722656 16.80175781 -11.15722656 16.80175781 -9.640625 14.453125 C-8.83238281 13.18662109 -8.83238281 13.18662109 -8.0078125 11.89453125 C-7.13769531 10.58548828 -7.13769531 10.58548828 -6.25 9.25 C-5.68539063 8.36183594 -5.12078125 7.47367188 -4.5390625 6.55859375 C-1.444083 1.78411116 -1.444083 1.78411116 0 0 Z " fill="#24467E" transform="translate(27,26)"/>
<path d="M0 0 C0.66 0 1.32 0 2 0 C3.12915039 1.51293945 3.12915039 1.51293945 4.34765625 3.61328125 C4.78787109 4.36673828 5.22808594 5.12019531 5.68164062 5.89648438 C6.13732422 6.69376953 6.59300781 7.49105469 7.0625 8.3125 C7.52205078 9.09818359 7.98160156 9.88386719 8.45507812 10.69335938 C10.24987893 13.79011553 11.86460554 16.59381663 13 20 C12.34 20.66 11.68 21.32 11 22 C9.15209906 19.09232609 7.32432824 16.17251108 5.5 13.25 C4.71302734 12.0125 4.71302734 12.0125 3.91015625 10.75 C3.41386719 9.95078125 2.91757813 9.1515625 2.40625 8.328125 C1.94541016 7.5949707 1.48457031 6.86181641 1.00976562 6.10644531 C0 4 0 4 0 0 Z " fill="#24447B" transform="translate(68,26)"/>
<path d="M0 0 C2.625 0.25 2.625 0.25 4.4375 1.75 C4.829375 2.245 5.22125 2.74 5.625 3.25 C4.738125 3.188125 3.85125 3.12625 2.9375 3.0625 C-0.71985017 3.26951982 -2.42277151 4.166074 -5.375 6.25 C-3.09651899 0.32594937 -3.09651899 0.32594937 0 0 Z " fill="#5F83BC" transform="translate(16.375,17.75)"/>
<path d="M0 0 C0.33 1.32 0.66 2.64 1 4 C3.97 4 6.94 4 10 4 C10 4.33 10 4.66 10 5 C9.39671875 5.03738281 8.7934375 5.07476563 8.171875 5.11328125 C2.00632228 5.56253341 2.00632228 5.56253341 -3 9 C-2.01 6.03 -1.02 3.06 0 0 Z " fill="#DEC1B7" transform="translate(29,25)"/>
<path d="M0 0 C1.70884005 1.62339805 3.37446717 3.29319053 5 5 C5 5.66 5 6.32 5 7 C2.03 6.505 2.03 6.505 -1 6 C-0.67 4.02 -0.34 2.04 0 0 Z " fill="#FAB591" transform="translate(47,65)"/>
<path d="M0 0 C-1.20381448 2.49361571 -2.45428722 4.68143083 -4 7 C-4.33 5.35 -4.66 3.7 -5 2 C-2 0 -2 0 0 0 Z " fill="#5474A7" transform="translate(71,22)"/>
</svg>
